<?xml version="1.0" standalone="no"?>
<!DOCTYPE svg PUBLIC "-//W3C//DTD SVG 20010904//EN"
 "http://www.w3.org/TR/2001/REC-SVG-20010904/DTD/svg10.dtd">
<svg version="1.0" xmlns="http://www.w3.org/2000/svg"
 width="128.000000pt" height="128.000000pt" viewBox="0 0 128.000000 128.000000"
 preserveAspectRatio="xMidYMid meet">

<g transform="translate(0.000000,128.000000) scale(0.100000,-0.100000)"
fill="#000000" stroke="none">
<path d="M510 283 c-40 -27 -49 -45 -49 -93 0 -110 126 -149 196 -60 7 8 12
35 12 60 0 64 -43 110 -104 110 -17 0 -42 -8 -55 -17z m78 -65 c17 -17 15 -43
-4 -59 -31 -26 -70 25 -44 56 15 18 32 19 48 3z"/>
<path d="M894 291 c-12 -5 -31 -22 -44 -38 -30 -38 -23 -104 14 -142 21 -21
36 -26 76 -26 41 0 54 5 77 28 23 23 28 36 28 77 0 40 -5 55 -26 76 -28 28
-89 40 -125 25z m70 -77 c9 -8 16 -19 16 -24 0 -11 -29 -40 -40 -40 -11 0 -40
29 -40 40 0 11 29 40 40 40 5 0 16 -7 24 -16z"/>
</g>
</svg>
